<svg width="338" height="303" viewBox="0 0 338 303" fill="none" xmlns="http://www.w3.org/2000/svg">
<rect width="338" height="303" rx="10" fill="#DDE3E9"/>
<circle cx="22" cy="22" r="8" fill="#FF605C"/>
<circle cx="46" cy="22" r="8" fill="#FFBD44"/>
<circle cx="70" cy="22" r="8" fill="#00CA4E"/>
<path d="M176 4C181.523 4 186 8.47715 186 14V34C186 38.4183 189.582 42 194 42H330C334.418 42 338 45.5817 338 50V293C338 298.523 333.523 303 328 303H10C4.47715 303 0 298.523 0 293V50C0 45.5817 3.58172 42 8 42H85C89.4183 42 93 38.4183 93 34V14C93 8.47715 97.4772 4 103 4H176Z" fill="white"/>
<path d="M113.877 16H114.589L113.197 20H112.557L111.429 16.816L110.365 20H109.725L108.333 16H109.045L110.053 19.256L111.141 16H111.781L112.869 19.256L113.877 16ZM115.869 15.232C115.581 15.232 115.389 15.04 115.389 14.752C115.389 14.464 115.581 14.272 115.869 14.272C116.157 14.272 116.349 14.464 116.349 14.752C116.349 15.04 116.157 15.232 115.869 15.232ZM116.189 16V20H115.549V16H116.189ZM117.674 20V16H118.234L118.274 16.624C118.554 16.12 119.066 15.92 119.618 15.92C120.474 15.92 121.178 16.408 121.178 17.44V20H120.538V17.664C120.538 16.776 120.106 16.48 119.554 16.48C118.97 16.48 118.314 16.848 118.314 17.872V20H117.674ZM108.499 29.08C107.507 29.08 106.675 28.304 106.675 27C106.675 25.672 107.563 24.92 108.563 24.92C109.139 24.92 109.611 25.208 109.827 25.648V23.16H110.467V29H109.907L109.867 28.248C109.651 28.784 109.091 29.08 108.499 29.08ZM108.563 28.52C109.323 28.52 109.827 27.912 109.827 26.944C109.827 26.032 109.323 25.48 108.595 25.48C107.787 25.48 107.315 26.08 107.315 27C107.315 27.92 107.771 28.52 108.563 28.52ZM114.203 23.64C115.707 23.64 116.651 24.688 116.651 26.36C116.651 28.032 115.707 29.08 114.203 29.08C112.699 29.08 111.755 28.032 111.755 26.36C111.755 24.688 112.699 23.64 114.203 23.64ZM114.203 24.24C113.107 24.24 112.427 25.032 112.427 26.36C112.427 27.688 113.107 28.48 114.203 28.48C115.299 28.48 115.979 27.688 115.979 26.36C115.979 25.032 115.299 24.24 114.203 24.24ZM122.877 25H123.589L122.197 29H121.557L120.429 25.816L119.365 29H118.725L117.333 25H118.045L119.053 28.256L120.141 25H120.781L121.869 28.256L122.877 25Z" fill="black"/>
<path d="M131.468 18.636H132.284V20.388C132.284 20.964 132.204 21.532 132.044 22.092C131.884 22.644 131.66 23.168 131.372 23.664C131.092 24.152 130.764 24.584 130.388 24.96C130.012 25.336 129.608 25.632 129.176 25.848L128.6 25.056C128.992 24.864 129.36 24.604 129.704 24.276C130.056 23.948 130.364 23.572 130.628 23.148C130.892 22.724 131.096 22.276 131.24 21.804C131.392 21.332 131.468 20.86 131.468 20.388V18.636ZM131.672 18.636H132.476V20.388C132.476 20.844 132.548 21.3 132.692 21.756C132.844 22.204 133.052 22.628 133.316 23.028C133.588 23.42 133.896 23.768 134.24 24.072C134.592 24.376 134.968 24.616 135.368 24.792L134.816 25.584C134.376 25.376 133.964 25.096 133.58 24.744C133.196 24.392 132.86 23.988 132.572 23.532C132.292 23.068 132.072 22.572 131.912 22.044C131.752 21.508 131.672 20.956 131.672 20.388V18.636ZM128.948 18.192H135.008V19.02H128.948V18.192ZM136.484 17.076H137.48V27.936H136.484V17.076ZM144.583 18.672H147.883V19.488H144.583V18.672ZM144.583 21.108H147.883V21.924H144.583V21.108ZM141.319 24.072H148.567V27.936H147.571V24.876H141.319V24.072ZM147.571 17.076H148.567V23.472H147.571V17.076ZM142.603 17.688C143.131 17.688 143.603 17.8 144.019 18.024C144.443 18.24 144.775 18.548 145.015 18.948C145.263 19.34 145.387 19.788 145.387 20.292C145.387 20.804 145.263 21.256 145.015 21.648C144.775 22.04 144.443 22.348 144.019 22.572C143.603 22.796 143.131 22.908 142.603 22.908C142.067 22.908 141.587 22.796 141.163 22.572C140.747 22.348 140.415 22.04 140.167 21.648C139.927 21.256 139.807 20.804 139.807 20.292C139.807 19.788 139.927 19.34 140.167 18.948C140.415 18.548 140.747 18.24 141.163 18.024C141.587 17.8 142.067 17.688 142.603 17.688ZM142.603 18.54C142.251 18.54 141.935 18.616 141.655 18.768C141.375 18.92 141.155 19.128 140.995 19.392C140.835 19.656 140.755 19.956 140.755 20.292C140.755 20.636 140.835 20.944 140.995 21.216C141.155 21.48 141.375 21.688 141.655 21.84C141.935 21.984 142.251 22.056 142.603 22.056C142.947 22.056 143.259 21.984 143.539 21.84C143.819 21.688 144.039 21.48 144.199 21.216C144.359 20.944 144.439 20.636 144.439 20.292C144.439 19.956 144.359 19.656 144.199 19.392C144.039 19.128 143.819 18.92 143.539 18.768C143.259 18.616 142.947 18.54 142.603 18.54ZM155.19 17.784H156.234C156.234 18.688 156.03 19.508 155.622 20.244C155.214 20.972 154.634 21.596 153.882 22.116C153.138 22.636 152.246 23.048 151.206 23.352L150.798 22.572C151.71 22.308 152.494 21.964 153.15 21.54C153.806 21.116 154.31 20.624 154.662 20.064C155.014 19.496 155.19 18.876 155.19 18.204V17.784ZM151.35 17.784H155.862V18.588H151.35V17.784ZM158.61 17.088H159.606V23.268H158.61V17.088ZM156.258 19.872H158.79V20.7H156.258V19.872ZM152.61 23.736H159.606V27.78H152.61V23.736ZM158.622 24.528H153.582V26.976H158.622V24.528ZM163.985 17.736H164.777V19.176C164.777 19.72 164.677 20.26 164.477 20.796C164.285 21.332 164.001 21.816 163.625 22.248C163.249 22.68 162.793 23.016 162.257 23.256L161.717 22.476C162.189 22.26 162.593 21.972 162.929 21.612C163.273 21.252 163.533 20.86 163.709 20.436C163.893 20.012 163.985 19.592 163.985 19.176V17.736ZM164.153 17.736H164.945V19.176C164.945 19.584 165.029 19.988 165.197 20.388C165.373 20.78 165.625 21.136 165.953 21.456C166.281 21.776 166.673 22.028 167.129 22.212L166.601 22.98C166.081 22.764 165.637 22.46 165.269 22.068C164.901 21.676 164.621 21.232 164.429 20.736C164.245 20.24 164.153 19.72 164.153 19.176V17.736ZM169.913 17.088H170.861V23.64H169.913V17.088ZM168.161 19.908H170.201V20.736H168.161V19.908ZM167.585 17.28H168.521V23.58H167.585V17.28ZM163.589 24.24H170.861V27.936H169.877V25.056H163.589V24.24Z" fill="black"/>
<line x1="115.433" y1="28.75" x2="116.847" y2="31.1995" stroke="black"/>
</svg>
