<svg width="40" height="88" viewBox="0 0 40 88" fill="none" xmlns="http://www.w3.org/2000/svg">
<mask id="path-1-inside-1_96_27" fill="white">
<path d="M27 25C27 18.3696 26.2098 12.0107 24.8033 7.32233C23.3968 2.63392 21.4891 5.00582e-07 19.5 0C17.5109 -5.00582e-07 15.6032 2.63392 14.1967 7.32233C12.7902 12.0107 12 18.3696 12 25L19.5 25H27Z"/>
</mask>
<path d="M27 25C27 18.3696 26.2098 12.0107 24.8033 7.32233C23.3968 2.63392 21.4891 5.00582e-07 19.5 0C17.5109 -5.00582e-07 15.6032 2.63392 14.1967 7.32233C12.7902 12.0107 12 18.3696 12 25L19.5 25H27Z" stroke="black" stroke-width="2" stroke-dasharray="1 1" mask="url(#path-1-inside-1_96_27)"/>
<g filter="url(#filter0_d_96_27)">
<circle cx="19" cy="4" r="4" fill="#D9D9D9"/>
</g>
<g filter="url(#filter1_d_96_27)">
<rect x="35.3429" y="83.8428" width="30" height="62" rx="8" transform="rotate(179.365 35.3429 83.8428)" fill="white"/>
<path d="M12.5227 33.8128C12.4919 31.029 13.3588 29.1232 15.2123 27.4466L17.6633 29.8676C16.4034 30.9616 15.7215 32.2412 15.7412 34.0171C15.7588 35.601 16.3931 36.5301 17.401 36.5189C20.5928 36.4835 18.9928 28.5567 24.9445 28.4907C28.0643 28.4561 29.9633 30.8832 30.0022 34.387C30.0285 36.7629 29.1392 38.8129 27.7374 40.1005L25.2864 37.6795C26.3312 36.6599 26.8239 35.6463 26.8096 34.3504C26.7947 33.0065 26.2819 32.2201 25.346 32.2305C22.3942 32.2632 23.9462 40.1905 17.7785 40.2589C14.5387 40.2948 12.568 37.8925 12.5227 33.8128ZM12.9001 44.0334L21.4436 43.9387L21.4143 41.2989L24.5341 41.2643L24.5634 43.9041L29.3871 43.8506L29.4278 47.5224L24.6041 47.5759L24.6334 50.2157L21.5136 50.2503L21.4843 47.6105L12.9408 47.7052L12.9001 44.0334ZM12.7853 57.4911C12.7433 53.6993 15.2568 50.9353 18.8085 50.8959C22.2883 50.8573 24.9342 53.5401 24.9736 57.0919C25.0117 60.5237 22.591 62.9987 19.2072 63.0362C18.7752 63.041 18.3427 62.9978 17.7414 62.8845L17.6248 54.5332C16.3331 54.9316 15.6004 55.9478 15.6169 57.4357C15.6296 58.5876 16.024 59.5193 16.8477 60.2062L14.8541 62.2444C13.4975 61.1074 12.8071 59.459 12.7853 57.4911ZM22.1661 57.1471C22.1512 55.8031 21.3966 54.8514 20.1447 54.5053L20.2251 59.5927C21.5178 59.2904 22.1807 58.467 22.1661 57.1471ZM8.21152 64.9307L24.7945 64.7468L24.8352 68.4186L24.0193 68.4276C24.676 69.2124 25.096 70.2878 25.109 71.4637C25.1457 74.7755 22.5802 77.1801 19.1004 77.2187C15.6207 77.2573 13.0025 74.9102 12.9657 71.5984C12.9524 70.3985 13.3242 69.2903 13.9634 68.4911L8.25171 68.5545L8.21152 64.9307ZM16.2704 70.9137C16.2874 72.4496 17.4513 73.5168 19.0592 73.4989C20.6911 73.4809 21.8071 72.3884 21.79 70.8525C21.7727 69.2926 20.6331 68.2492 19.0012 68.2673C17.3933 68.2851 16.2531 69.3538 16.2704 70.9137Z" fill="#6D6D6D"/>
</g>
<defs>
<filter id="filter0_d_96_27" x="11" y="0" width="16" height="16" filterUnits="userSpaceOnUse" color-interpolation-filters="sRGB">
<feFlood flood-opacity="0" result="BackgroundImageFix"/>
<feColorMatrix in="SourceAlpha" type="matrix" values="0 0 0 0 0 0 0 0 0 0 0 0 0 0 0 0 0 0 127 0" result="hardAlpha"/>
<feOffset dy="4"/>
<feGaussianBlur stdDeviation="2"/>
<feComposite in2="hardAlpha" operator="out"/>
<feColorMatrix type="matrix" values="0 0 0 0 0 0 0 0 0 0 0 0 0 0 0 0 0 0 0.25 0"/>
<feBlend mode="normal" in2="BackgroundImageFix" result="effect1_dropShadow_96_27"/>
<feBlend mode="normal" in="SourceGraphic" in2="effect1_dropShadow_96_27" result="shape"/>
</filter>
<filter id="filter1_d_96_27" x="0.745453" y="21.9349" width="38.5092" height="70.1524" filterUnits="userSpaceOnUse" color-interpolation-filters="sRGB">
<feFlood flood-opacity="0" result="BackgroundImageFix"/>
<feColorMatrix in="SourceAlpha" type="matrix" values="0 0 0 0 0 0 0 0 0 0 0 0 0 0 0 0 0 0 127 0" result="hardAlpha"/>
<feOffset dy="4"/>
<feGaussianBlur stdDeviation="2"/>
<feComposite in2="hardAlpha" operator="out"/>
<feColorMatrix type="matrix" values="0 0 0 0 0 0 0 0 0 0 0 0 0 0 0 0 0 0 0.25 0"/>
<feBlend mode="normal" in2="BackgroundImageFix" result="effect1_dropShadow_96_27"/>
<feBlend mode="normal" in="SourceGraphic" in2="effect1_dropShadow_96_27" result="shape"/>
</filter>
</defs>
</svg>
