<svg width="514" height="685" viewBox="0 0 514 685" fill="none" xmlns="http://www.w3.org/2000/svg">
<rect x="40" y="8" width="434" height="26" fill="#886529"/>
<rect x="40" y="608" width="434" height="22" fill="#725625"/>
<rect x="60" y="8" width="646" height="20" transform="rotate(90 60 8)" fill="#886529"/>
<g filter="url(#filter0_d_15_104)">
<rect x="474" y="8" width="646" height="19" transform="rotate(90 474 8)" fill="#886529"/>
</g>
<g filter="url(#filter1_d_15_104)">
<path d="M510 677H4V654H510V677ZM455 342H60V29H455V342ZM81 320H433V52H81V320Z" fill="#725625"/>
</g>
<path d="M85 630H60V320H85V630ZM455 630H430V320.313H455V630Z" fill="#725625"/>
<g opacity="0.4" filter="url(#filter2_d_15_104)">
<rect x="60" y="337" width="395" height="5" fill="#725625"/>
</g>
<g opacity="0.4" filter="url(#filter3_f_15_104)">
<rect x="430" y="342" width="25" height="22" fill="#362912" fill-opacity="0.7"/>
</g>
<g opacity="0.4" filter="url(#filter4_f_15_104)">
<rect x="60" y="342" width="25" height="22" fill="#362912" fill-opacity="0.7"/>
</g>
<rect x="250" y="328" width="32" height="6" rx="2" fill="#D9D9D9"/>
<path d="M22 651.867L40 650V654H4L22 651.867Z" fill="#9C732D"/>
<path d="M492 651.867L474 650V654H510L492 651.867Z" fill="#9C732D"/>
<rect x="455" y="654" width="395" height="24" transform="rotate(-180 455 654)" fill="#886529"/>
<rect x="60" y="630" width="395" height="2" rx="0.5" fill="#B48B43"/>
<rect x="40" y="652" width="434" height="2" rx="0.5" fill="#B48B43"/>
<defs>
<filter id="filter0_d_15_104" x="451" y="0" width="35" height="662" filterUnits="userSpaceOnUse" color-interpolation-filters="sRGB">
<feFlood flood-opacity="0" result="BackgroundImageFix"/>
<feColorMatrix in="SourceAlpha" type="matrix" values="0 0 0 0 0 0 0 0 0 0 0 0 0 0 0 0 0 0 127 0" result="hardAlpha"/>
<feOffset dx="4"/>
<feGaussianBlur stdDeviation="4"/>
<feComposite in2="hardAlpha" operator="out"/>
<feColorMatrix type="matrix" values="0 0 0 0 0 0 0 0 0 0 0 0 0 0 0 0 0 0 0.25 0"/>
<feBlend mode="normal" in2="BackgroundImageFix" result="effect1_dropShadow_15_104"/>
<feBlend mode="normal" in="SourceGraphic" in2="effect1_dropShadow_15_104" result="shape"/>
</filter>
<filter id="filter1_d_15_104" x="0" y="29" width="514" height="656" filterUnits="userSpaceOnUse" color-interpolation-filters="sRGB">
<feFlood flood-opacity="0" result="BackgroundImageFix"/>
<feColorMatrix in="SourceAlpha" type="matrix" values="0 0 0 0 0 0 0 0 0 0 0 0 0 0 0 0 0 0 127 0" result="hardAlpha"/>
<feOffset dy="4"/>
<feGaussianBlur stdDeviation="2"/>
<feComposite in2="hardAlpha" operator="out"/>
<feColorMatrix type="matrix" values="0 0 0 0 0 0 0 0 0 0 0 0 0 0 0 0 0 0 0.25 0"/>
<feBlend mode="normal" in2="BackgroundImageFix" result="effect1_dropShadow_15_104"/>
<feBlend mode="normal" in="SourceGraphic" in2="effect1_dropShadow_15_104" result="shape"/>
</filter>
<filter id="filter2_d_15_104" x="56" y="337" width="403" height="13" filterUnits="userSpaceOnUse" color-interpolation-filters="sRGB">
<feFlood flood-opacity="0" result="BackgroundImageFix"/>
<feColorMatrix in="SourceAlpha" type="matrix" values="0 0 0 0 0 0 0 0 0 0 0 0 0 0 0 0 0 0 127 0" result="hardAlpha"/>
<feOffset dy="4"/>
<feGaussianBlur stdDeviation="2"/>
<feComposite in2="hardAlpha" operator="out"/>
<feColorMatrix type="matrix" values="0 0 0 0 0 0 0 0 0 0 0 0 0 0 0 0 0 0 1 0"/>
<feBlend mode="normal" in2="BackgroundImageFix" result="effect1_dropShadow_15_104"/>
<feBlend mode="normal" in="SourceGraphic" in2="effect1_dropShadow_15_104" result="shape"/>
</filter>
<filter id="filter3_f_15_104" x="426" y="338" width="33" height="30" filterUnits="userSpaceOnUse" color-interpolation-filters="sRGB">
<feFlood flood-opacity="0" result="BackgroundImageFix"/>
<feBlend mode="normal" in="SourceGraphic" in2="BackgroundImageFix" result="shape"/>
<feGaussianBlur stdDeviation="2" result="effect1_foregroundBlur_15_104"/>
</filter>
<filter id="filter4_f_15_104" x="56" y="338" width="33" height="30" filterUnits="userSpaceOnUse" color-interpolation-filters="sRGB">
<feFlood flood-opacity="0" result="BackgroundImageFix"/>
<feBlend mode="normal" in="SourceGraphic" in2="BackgroundImageFix" result="shape"/>
<feGaussianBlur stdDeviation="2" result="effect1_foregroundBlur_15_104"/>
</filter>
</defs>
</svg>
