<svg width="39" height="90" viewBox="0 0 39 90" fill="none" xmlns="http://www.w3.org/2000/svg">
<mask id="path-1-inside-1_96_26" fill="white">
<path d="M26 25C26 18.3696 25.2098 12.0107 23.8033 7.32233C22.3968 2.63392 20.4891 5.00582e-07 18.5 0C16.5109 -5.00582e-07 14.6032 2.63392 13.1967 7.32233C11.7902 12.0107 11 18.3696 11 25L18.5 25H26Z"/>
</mask>
<path d="M26 25C26 18.3696 25.2098 12.0107 23.8033 7.32233C22.3968 2.63392 20.4891 5.00582e-07 18.5 0C16.5109 -5.00582e-07 14.6032 2.63392 13.1967 7.32233C11.7902 12.0107 11 18.3696 11 25L18.5 25H26Z" stroke="black" stroke-width="2" stroke-dasharray="1 1" mask="url(#path-1-inside-1_96_26)"/>
<g filter="url(#filter0_d_96_26)">
<rect x="34.7486" y="84.0197" width="30" height="62" rx="8" transform="rotate(179.306 34.7486 84.0197)" fill="white"/>
<path d="M11.8773 34.013C11.8436 31.2292 12.7086 29.3225 14.5604 27.644L17.0139 30.0625C15.7551 31.1578 15.0745 32.4381 15.096 34.214C15.1152 35.7979 15.7505 36.7263 16.7584 36.7141C19.9502 36.6754 18.3421 28.7503 24.2937 28.6782C27.4134 28.6404 29.3149 31.0656 29.3574 34.5693C29.3861 36.9452 28.4989 38.9961 27.0984 40.2851L24.645 37.8666C25.6887 36.8459 26.1804 35.8319 26.1647 34.536C26.1485 33.1921 25.6349 32.4062 24.699 32.4176C21.7472 32.4533 23.3073 40.379 17.1397 40.4537C13.9 40.4929 11.9268 38.0927 11.8773 34.013ZM12.2651 44.2332L20.8085 44.1297L20.7765 41.4899L23.8963 41.4522L23.9283 44.092L28.7519 44.0335L28.7964 47.7053L23.9727 47.7637L24.0047 50.4035L20.8849 50.4413L20.853 47.8015L12.3096 47.9049L12.2651 44.2332ZM12.1773 56.8027C12.1384 53.587 14.7014 51.1798 18.1812 51.1376C21.6609 51.0955 24.2815 53.4399 24.3204 56.6557C24.3361 57.9516 23.8938 59.085 23.1595 59.886L24.1194 59.8744L24.163 63.4741L12.4999 63.6153L12.4563 60.0156L13.4162 60.004C12.6627 59.221 12.193 58.0987 12.1773 56.8027ZM15.4981 57.5066C15.517 59.0665 16.6577 60.1087 18.2896 60.089C19.9215 60.0692 21.0366 58.9996 21.018 57.4637C20.9994 55.9279 19.8341 54.8379 18.2262 54.8574C16.6183 54.8768 15.4798 55.9947 15.4981 57.5066ZM7.61879 66.8601L13.3623 69.4308L24.1798 64.8594L24.2277 68.8191L17.1524 71.233L24.2847 73.5228L24.3326 77.4825L12.5611 72.6327L7.66442 70.6278L7.61879 66.8601Z" fill="#6D6D6D"/>
</g>
<defs>
<filter id="filter0_d_96_26" x="0.0962677" y="22.1205" width="38.556" height="70.1662" filterUnits="userSpaceOnUse" color-interpolation-filters="sRGB">
<feFlood flood-opacity="0" result="BackgroundImageFix"/>
<feColorMatrix in="SourceAlpha" type="matrix" values="0 0 0 0 0 0 0 0 0 0 0 0 0 0 0 0 0 0 127 0" result="hardAlpha"/>
<feOffset dy="4"/>
<feGaussianBlur stdDeviation="2"/>
<feComposite in2="hardAlpha" operator="out"/>
<feColorMatrix type="matrix" values="0 0 0 0 0 0 0 0 0 0 0 0 0 0 0 0 0 0 0.25 0"/>
<feBlend mode="normal" in2="BackgroundImageFix" result="effect1_dropShadow_96_26"/>
<feBlend mode="normal" in="SourceGraphic" in2="effect1_dropShadow_96_26" result="shape"/>
</filter>
</defs>
</svg>
